<svg width="149" height="90" viewBox="0 0 149 90" fill="none" xmlns="http://www.w3.org/2000/svg">
<path fill-rule="evenodd" clip-rule="evenodd" d="M41 44C41 50.6274 35.6274 56 29 56C26.3876 56 23.9702 55.1652 22 53.7479V62.5C22 63.8807 20.8807 65 19.5 65C18.1193 65 17 63.8807 17 62.5V45.5C17 45.34 17.015 45.1835 17.0437 45.0319C17.0148 44.6918 17 44.3476 17 44C17 37.3726 22.3726 32 29 32C35.6274 32 41 37.3726 41 44ZM36 44C36 47.866 32.866 51 29 51C25.134 51 22 47.866 22 44C22 40.134 25.134 37 29 37C32.866 37 36 40.134 36 44Z" fill="#3CDC84"/>
<path fill-rule="evenodd" clip-rule="evenodd" d="M55 56C61.6274 56 67 50.6274 67 44C67 37.3726 61.6274 32 55 32C48.3726 32 43 37.3726 43 44C43 50.6274 48.3726 56 55 56ZM55 51C58.866 51 62 47.866 62 44C62 40.134 58.866 37 55 37C51.134 37 48 40.134 48 44C48 47.866 51.134 51 55 51Z" fill="#3CDC84"/>
<path d="M71.5 32C70.1193 32 69 33.1193 69 34.5V53.5C69 54.8807 70.1193 56 71.5 56C72.8807 56 74 54.8807 74 53.5V45.0329C74 45.0147 74.0147 45 74.0329 45C74.053 45 74.0683 44.9823 74.0656 44.9624C74.0224 44.6478 74 44.3265 74 44C74 40.134 77.134 37 81 37C81.5295 37 82 36.5971 82 36.0675V33.0422C82 32.4765 81.5657 32 81 32C78.3826 32 75.961 32.838 73.9887 34.2603C73.868 32.992 72.7999 32 71.5 32Z" fill="#3CDC84"/>
<path fill-rule="evenodd" clip-rule="evenodd" d="M100.957 53.7786C98.9948 55.1773 96.5935 56 94 56C87.3726 56 82 50.6274 82 44C82 37.3726 87.3726 32 94 32C100.319 32 105.498 36.8846 105.966 43.0842C105.988 43.2194 106 43.3583 106 43.5V52.5C106 52.5526 105.998 52.6048 105.995 52.6565C105.998 52.7706 106 52.8851 106 53C106 59.6274 100.627 65 94 65C93.4343 65 93 64.5235 93 63.9578V60.9325C93 60.4029 93.4705 60 94 60C97.6028 60 100.57 57.2781 100.957 53.7786ZM101 44C101 47.866 97.866 51 94 51C90.134 51 87 47.866 87 44C87 40.134 90.134 37 94 37C97.866 37 101 40.134 101 44Z" fill="#3CDC84"/>
<path fill-rule="evenodd" clip-rule="evenodd" d="M109.76 50.2604C108.794 48.6826 108.181 46.8642 108.034 44.9158C108.012 44.7806 108 44.6417 108 44.5C108 44.4474 108.002 44.3952 108.005 44.3435C108.002 44.2294 108 44.1149 108 44C108 37.3726 113.373 32 120 32C126.627 32 132 37.3726 132 44C132 44.1149 132.003 43.8859 132 44C132.003 44.0518 132 43.9474 132 44C132 44.1417 132.023 43.8647 132 44C132 47.5 128.5 47 127.622 47H113.674C114.095 47.8869 114.697 48.6711 115.433 49.3049C116.659 50.3613 118.255 51 120 51C124.071 51 125.659 55.3449 121.625 55.8909C121.093 55.9629 120.551 56 120 56C115.667 56 111.87 53.7031 109.76 50.2604ZM120 37C123.171 37 125.85 39.1085 126.71 42H113.29C114.15 39.1085 116.829 37 120 37Z" fill="#3CDC84"/>
</svg>
